Coordinates
version=1
nRows=17
nColumns=36
inDegrees=yes

Units are S.I. units (second, meters, Newtons, ...)
If the header above contains a line with 'inDegrees', this indicates whether rotational values are in degrees (yes) or radians (no).

endheader
time	pelvis_tilt	pelvis_list	pelvis_rotation	pelvis_tx	pelvis_ty	pelvis_tz	hip_flexion_r	hip_adduction_r	hip_rotation_r	knee_angle_r	knee_angle_r_beta	ankle_angle_r	subtalar_angle_r	mtp_angle_r	hip_flexion_l	hip_adduction_l	hip_rotation_l	knee_angle_l	knee_angle_l_beta	ankle_angle_l	subtalar_angle_l	mtp_angle_l	lumbar_extension	lumbar_bending	lumbar_rotation	arm_flex_r	arm_add_r	arm_rot_r	elbow_flex_r	pro_sup_r	arm_flex_l	arm_add_l	arm_rot_l	elbow_flex_l	pro_sup_l
      0.00000000	      0.28284273	      1.39186400	      1.93847391	     -0.18480961	      0.99346600	     -0.30726165	     27.35678331	     -1.13808686	     -0.87250615	      9.15960009	      0.15986518	      0.30033679	     -8.36613832	     -4.28527090	    -22.06083133	      2.93114856	     -0.52696082	      9.13586055	      0.15945085	     12.79895789	     13.49725081	     -4.28527090	     -9.89875390	      2.37816608	     -8.30807800	     -5.66204028	     -6.66015066	    -12.86110423	     30.07940277	    107.63770253	      8.40552314	    -10.16971882	      3.80253005	     63.77146847	    108.52767705
      0.01000000	      0.37968824	      0.93342987	      2.31814450	     -0.16873314	      0.99276397	     -0.30587909	     26.85665399	     -0.79330984	     -2.37436506	      9.61372076	      0.16779108	     -1.66761407	     -8.20178391	     -4.32017540	    -22.09723176	      2.10770310	     -0.93826885	     10.80581150	      0.18859699	     11.86551257	     13.12339817	     -4.32017540	     -9.69799808	      3.01905013	     -8.61306688	     -5.83874677	     -6.65580580	    -12.93929595	     29.97417370	    107.69445922	      7.58483019	     -9.95401788	      3.87267428	     63.08420399	    108.62958522
      0.02000000	      0.50938162	      0.42863927	      2.68426714	     -0.15271964	      0.99228555	     -0.30447656	     26.38100864	     -0.38975765	     -3.82854100	     10.22413494	      0.17844482	     -3.47548061	     -8.22685052	     -4.34757981	    -22.08350309	      1.21760815	     -1.37390279	     12.55883043	      0.21919294	     10.77754734	     12.78056279	     -4.34757981	     -9.53676165	      3.70606672	     -8.90057315	     -5.98291423	     -6.66831787	    -13.01885744	     29.84567642	    107.73707864	      6.79253142	     -9.70830605	      3.91379641	     62.33420696	    108.68071357
      0.03000000	      0.60641941	     -0.13893540	      2.99768540	     -0.13680102	      0.99213642	     -0.30304536	     26.03036682	      0.10155513	     -5.03630682	     11.07913186	      0.19336733	     -4.99643619	     -8.47965123	     -4.37528105	    -21.86552150	      0.24896204	     -1.84683142	     14.53168891	      0.25362582	      9.47185483	     12.43233439	     -4.37528105	     -9.34372661	      4.46716420	     -9.10397563	     -6.10557655	     -6.71170677	    -13.10601742	     29.73509482	    107.78230878	      6.01015156	     -9.40112608	      3.90169189	     61.45060353	    108.71041180
      0.04000000	      0.66904182	     -0.73848269	      3.21648561	     -0.12102306	      0.99241626	     -0.30153615	     25.83459274	      0.66385645	     -5.97294393	     12.25823190	      0.21394651	     -6.02595481	     -8.98338363	     -4.40498088	    -21.38197196	     -0.75612278	     -2.40096322	     16.80296642	      0.29326709	      7.85170726	     12.04429012	     -4.40498088	     -9.13718867	      5.26536275	     -9.17642706	     -6.21633088	     -6.77102580	    -13.20738552	     29.66626936	    107.83242263	      5.24468690	     -9.02748486	      3.83676975	     60.40262695	    108.72416023
      0.05000000	      0.67589837	     -1.35552796	      3.32173757	     -0.10543407	      0.99310701	     -0.29990854	     25.79562643	      1.28887371	     -6.60172095	     13.72541094	      0.23955361	     -6.49468230	     -9.67438459	     -4.43912760	    -20.56841428	     -1.79015172	     -3.05313272	     19.43836222	      0.33926342	      5.85090452	     11.57472744	     -4.43912760	     -8.89820746	      6.06851732	     -9.09276929	     -6.31400716	     -6.83942097	    -13.34437467	     29.66933025	    107.88978055	      4.51298143	     -8.57916961	      3.72919344	     59.16826314	    108.73091592
      0.06000000	      0.74003626	     -1.93981238	      3.32192247	     -0.08996066	      0.99432307	     -0.29816831	     25.70529924	      1.93502701	     -6.99485077	     15.32406804	      0.26745544	     -6.37572310	    -10.39701082	     -4.47034923	    -19.56777140	     -2.81006245	     -3.72663862	     22.41210175	      0.39116497	      3.50320320	     11.02326865	     -4.47034923	     -8.74993431	      6.82383447	     -8.87206055	     -6.40589640	     -6.91152272	    -13.49762932	     29.74661450	    107.93924879	      3.82132797	     -8.09954839	      3.58030044	     57.84365306	    108.71236738
      0.07000000	      0.63423551	     -2.54634981	      3.22601426	     -0.07465817	      0.99564846	     -0.29622247	     25.73436286	      2.67543853	     -7.03620331	     16.87011326	      0.29443902	     -5.91073933	    -11.09061008	     -4.51148077	    -18.11997965	     -3.87448765	     -4.36141877	     25.74773609	      0.44938277	      0.80576559	     10.28084632	     -4.51148077	     -8.43917606	      7.58612365	     -8.51485765	     -6.54381753	     -6.97351172	    -13.75193362	     29.94290065	    107.99777743	      3.14034892	     -7.56849751	      3.41605104	     56.30512137	    108.70878385
      0.08000000	      0.77775208	     -3.06684937	      3.17675715	     -0.05971014	      0.99754778	     -0.29422466	     25.33124582	      3.36199432	     -7.08976094	     18.13192442	      0.31646178	     -5.16772159	    -11.74812588	     -4.54113506	    -16.66857285	     -4.94999402	     -4.91197473	     29.42328042	      0.51353312	     -2.02255883	      9.59916906	     -4.54113506	     -8.49633703	      8.22919446	     -8.12629218	     -6.58551219	     -7.00798876	    -13.93642486	     30.18856402	    108.03954987	      2.55356674	     -7.14712253	      3.18510317	     54.87156716	    108.66357546
      0.09000000	      0.70329231	     -3.68208223	      3.15313520	     -0.04497697	      0.99924289	     -0.29210378	     24.98671458	      4.19977370	     -6.93000703	     19.06662632	      0.33277541	     -4.36263575	    -12.34442516	     -4.57550455	    -14.72123224	     -6.18371898	     -5.30207487	     33.40907125	      0.58309829	     -5.13041987	      8.67721890	     -4.57550455	     -8.29895083	      8.96874533	     -7.74115406	     -6.68600332	     -7.02839739	    -14.18646601	     30.56135309	    108.08113862	      1.96645187	     -6.69489230	      2.93544631	     53.25820233	    108.62034407
      0.10000000	      0.67753624	     -4.21621320	      3.26839906	     -0.03073575	      1.00103944	     -0.29003711	     24.40534548	      4.96251481	     -6.78622041	     19.60506634	      0.34217296	     -3.58796130	    -12.96026976	     -4.61069818	    -12.56521155	     -7.40291600	     -5.42292125	     37.62599505	      0.65669750	     -8.26013219	      7.66880513	     -4.61069818	     -8.20901487	      9.58706160	     -7.41479177	     -6.75301604	     -6.99820962	    -14.43517459	     30.99987264	    108.11945247	      1.48663258	     -6.33352228	      2.68634477	     51.64929713	    108.58317429
      0.11000000	      0.56103260	     -4.61534962	      3.49812943	     -0.01702276	      1.00272259	     -0.28814342	     23.81234273	      5.58270132	     -6.58207858	     19.87259361	      0.34684219	     -3.17915543	    -13.80296637	     -4.80686241	    -10.10287335	     -8.42331605	     -5.17075612	     41.89535822	      0.73121194	    -11.68578906	      5.81840123	     -4.80686241	     -8.05713744	     10.05473060	     -6.94425403	     -6.97465181	     -6.79271837	    -15.40816309	     31.73229637	    108.27678477	      1.29804791	     -6.06806155	      2.82377901	     49.66840933	    109.02048099
      0.12000000	      0.49236565	     -5.10335856	      3.89548120	     -0.00364405	      1.00441802	     -0.28638763	     23.02467915	      6.28416750	     -6.52714374	     19.81050499	      0.34575854	     -2.53863395	    -14.42773687	     -4.86496708	     -7.50473734	     -9.61693893	     -4.80742367	     46.19545928	      0.80626286	    -14.63327237	      4.70784483	     -4.86496708	     -7.97066714	     10.59500625	     -6.84470703	     -6.92089579	     -6.75480468	    -15.35661582	     32.17139320	    108.34653337	      0.92476904	     -5.82547073	      2.48533715	     48.04175217	    108.97618754
      0.13000000	      0.59896018	     -5.54841749	      4.45376097	      0.00944406	      1.00639740	     -0.28492557	     21.93891887	      6.92716992	     -6.55479116	     19.51437466	      0.34059009	     -1.70762262	    -15.06346984	     -4.89349748	     -4.99942768	    -10.73442943	     -4.20428136	     50.29812208	      0.87786784	    -17.22027334	      3.88258110	     -4.89349748	     -8.10101510	     11.09655648	     -6.82700792	     -6.78836738	     -6.72339126	    -15.26351060	     32.56164878	    108.38293044	      0.61808685	     -5.70642516	      2.21578480	     46.53454595	    108.88864788
      0.14000000	      0.59995352	     -5.87043416	      5.04936656	      0.02212637	      1.00833368	     -0.28373543	     20.93640356	      7.41461302	     -6.61695221	     19.10279713	      0.33340671	     -1.15265280	    -15.57720991	     -4.92214985	     -2.30073423	    -11.55238463	     -3.41252833	     54.20244041	      0.94601105	    -19.35443278	      2.56636600	     -4.92214985	     -8.11383625	     11.45071294	     -6.81080342	     -6.65955593	     -6.70398951	    -15.12635234	     32.98473578	    108.41591985	      0.42723610	     -5.58512332	      1.97538652	     44.84133527	    108.79859333
      0.15000000	      0.55058211	     -6.02441529	      5.61190713	      0.03451221	      1.01037482	     -0.28279199	     19.98289085	      7.70178737	     -6.73121632	     18.67180104	      0.32588441	     -0.80090460	    -15.96519151	     -4.95958201	      0.43860557	    -12.01623783	     -2.60888874	     57.81710606	      1.00909886	    -20.89920117	      0.88041036	     -4.95958201	     -8.09212398	     11.61760532	     -6.74661470	     -6.50648915	     -6.69721387	    -14.93526138	     33.40608853	    108.44229670	      0.34353021	     -5.52494657	      1.85142534	     42.99069588	    108.74139264
      0.16000000	      0.64215186	     -6.07417038	      6.17750048	      0.04677874	      1.01281041	     -0.28207938	     18.79272017	      7.88084796	     -6.91875336	     18.09318603	      0.31578567	     -0.26655957	    -16.22302463	     -4.98836701	      2.95011608	    -12.24877941	     -1.80134184	     61.08080047	      1.06606108	    -21.45497695	     -0.43068363	     -4.98836701	     -8.28711117	     11.68669686	     -6.61032997	     -6.28569647	     -6.71606849	    -14.70181043	     33.75571062	    108.46690133	      0.27897497	     -5.53592497	      1.73768241	     41.35677843	    108.67887871
